PathFileType	4	(X/Y/Z)	C:\Users\Basilio\Documents\Thesis Gigler\squatting_fais\c3dfiles\040\SLS_pre_back1\markers_experimental.trc
DataRate	CameraRate	NumFrames	NumMarkers	Units	OrigDataRate	OrigDataStartFrame	OrigNumFrames
200.000000	200.000000	4	64	mm	200.000000	670	1073
Frame#	Time	FHD			LBHD			RBHD			C7			T10			CLAV			LSHO			LUUPA			LMUPA			LDUPA			LLEP			LMEP			LRAD			LUL			LRFIN			RSHO			RUPA1			RMUPA			RDUPA			RLEP			RMEP			RRAD			RUL			RUFIN			LASI			RASI			USACR			LSACR			RSACR			LTHI1			LTHI2			LTHI3			LTHI4			LLFC			LMFC			LTIB1			LTIB2			LTIB3			LTIB4			LLMAL			LMMAL			LHEE			LMT1			LMT2			LMT5			RTHI			RTHI2			RTHI3			RTHI4			RLFC			RMFC			RTIB1			RTIB2			RTIB3			RTIB4			RLMAL			RMMAL			RHEE			RMT1			RMT2			RMT5			*61			*62			*63			
		X1	Y1	Z1	X2	Y2	Z2	X3	Y3	Z3	X4	Y4	Z4	X5	Y5	Z5	X6	Y6	Z6	X7	Y7	Z7	X8	Y8	Z8	X9	Y9	Z9	X10	Y10	Z10	X11	Y11	Z11	X12	Y12	Z12	X13	Y13	Z13	X14	Y14	Z14	X15	Y15	Z15	X16	Y16	Z16	X17	Y17	Z17	X18	Y18	Z18	X19	Y19	Z19	X20	Y20	Z20	X21	Y21	Z21	X22	Y22	Z22	X23	Y23	Z23	X24	Y24	Z24	X25	Y25	Z25	X26	Y26	Z26	X27	Y27	Z27	X28	Y28	Z28	X29	Y29	Z29	X30	Y30	Z30	X31	Y31	Z31	X32	Y32	Z32	X33	Y33	Z33	X34	Y34	Z34	X35	Y35	Z35	X36	Y36	Z36	X37	Y37	Z37	X38	Y38	Z38	X39	Y39	Z39	X40	Y40	Z40	X41	Y41	Z41	X42	Y42	Z42	X43	Y43	Z43	X44	Y44	Z44	X45	Y45	Z45	X46	Y46	Z46	X47	Y47	Z47	X48	Y48	Z48	X49	Y49	Z49	X50	Y50	Z50	X51	Y51	Z51	X52	Y52	Z52	X53	Y53	Z53	X54	Y54	Z54	X55	Y55	Z55	X56	Y56	Z56	X57	Y57	Z57	X58	Y58	Z58	X59	Y59	Z59	X60	Y60	Z60	X61	Y61	Z61	X62	Y62	Z62	X63	Y63	Z63	X64	Y64	Z64	

671	3.35	32.99300384521485	1479.485961914063	-1235.766357421875	-88.08065795898439	1422.572265625	-1279.560546875	-142.190170288086	1380.212524414063	-1148.987182617188	-155.1952514648438	1308.013061523438	-1195.54052734375	-363.4642333984376	1093.205932617188	-1163.704345703125	-75.30628967285158	1191.484619140625	-1204.712646484375	-99.58808135986331	1286.768310546875	-1327.484985351563	38.24908065795899	1233.562622070313	-1418.039916992188	69.7644729614258	1235.28271484375	-1379.293090820313	103.4400100708008	1209.952392578125	-1425.01806640625	155.4091949462891	1175.508911132813	-1432.138061523438	136.2259521484375	1118.658081054688	-1405.62109375	424.5627746582032	1138.271240234375	-1318.036376953125	431.4144287109376	1149.869384765625	-1393.836791992188	515.1693115234376	1144.51953125	-1315.55322265625	-74.2111282348633	1268.07080078125	-1074.891479492188	61.61718368530275	1186.096801757813	-990.2412109375002	93.88307952880861	1200.903076171875	-1023.335388183594	125.4514236450196	1158.01220703125	-995.5432128906252	185.7886047363282	1139.9755859375	-1007.520202636719	165.5525970458985	1083.10986328125	-1053.780517578125	444.6867065429689	1149.697998046875	-1150.26220703125	456.1063842773439	1126.0791015625	-1078.573974609375	538.0759887695314	1152.95654296875	-1153.537353515625	-327.9280090332032	862.8914184570315	-1253.51904296875	-339.8858947753907	849.6943359375002	-1034.775512695313	-471.5835571289064	988.0872802734377	-1149.048583984375	-497.2687988281251	968.1531372070315	-1179.235961914063	-499.717010498047	965.2256469726565	-1123.359252929688	-333.2866821289063	660.1426391601564	-1310.692749023438	-253.3587951660157	629.5591430664064	-1309.107177734375	-219.4071044921876	661.5519409179689	-1307.658081054688	-235.3849792480469	575.7276000976564	-1287.316162109375	-147.2487335205078	494.4205627441407	-1259.886962890625	-169.5511779785157	490.3262023925782	-1140.529296875	-179.7946014404297	284.8276062011719	-1194.8408203125	-252.8885192871094	272.2414550781251	-1246.368408203125	-218.8164367675782	252.0874481201172	-1222.527587890625	-251.0316314697266	181.9198608398438	-1182.4697265625	-346.3550109863282	124.3709945678711	-1204.06298828125	-319.3815612792969	139.9847106933594	-1118.929443359375	-419.9874572753907	97.89334869384768	-1159.596069335938	-207.139144897461	54.96586990356447	-1125.817504882813	-206.3094787597657	49.61774826049806	-1172.139770507813	-256.2084045410157	36.79182815551759	-1223.182373046875	-466.2125244140626	614.5794067382814	-978.6387939453127	-451.6887207031251	549.0711059570314	-986.178649902344	-420.6309814453126	540.8078002929689	-994.2901000976565	-504.7230834960939	486.1856689453126	-995.8787841796877	-543.5769042968751	384.2286987304689	-1006.422485351563	-561.7648315429689	389.6843566894532	-1134.54638671875	-709.5808105468751	305.1210327148438	-1026.4521484375	-788.8457641601565	369.1884765625001	-987.047790527344	-790.0847778320315	324.5983886718751	-1002.67431640625	-839.4873046875002	308.9489746093751	-1033.41845703125	-956.7363891601565	350.2503662109376	-998.2925415039065	-946.7754516601565	347.6094055175782	-1088.595336914063	-1001.337707519531	422.1481933593751	-1044.01123046875	-1012.283508300781	205.3424377441407	-1090.58984375	-1012.065673828125	199.6401519775391	-1049.912353515625	-1039.1982421875	232.0123748779297	-995.0130615234377	-169.1388244628907	490.3702697753907	-1140.4990234375	nan	nan	nan	nan	nan	nan	
672	3.355	31.69244575500489	1482.406005859375	-1235.55615234375	-88.91735839843751	1425.212524414063	-1279.473999023438	-143.6908264160157	1383.149169921875	-1148.73828125	-155.908920288086	1310.120727539063	-1195.414916992188	-363.7062683105469	1094.643310546875	-1164.042602539063	-75.86980438232423	1194.200073242188	-1204.737670898438	-100.6782836914063	1289.564697265625	-1327.38037109375	38.20786285400391	1235.876953125	-1419.029541015625	69.33129882812501	1238.601440429688	-1380.534545898438	102.3094635009766	1212.739135742188	-1425.435791015625	154.5970153808594	1178.018798828125	-1432.510498046875	135.2694244384766	1121.213623046875	-1405.870971679688	423.8058471679689	1140.899291992188	-1318.442260742188	429.4035949707032	1151.926513671875	-1393.393432617188	514.5399780273439	1147.062744140625	-1316.078857421875	-75.48684692382814	1270.2900390625	-1075.171264648438	61.28456878662111	1188.259155273438	-990.0840454101565	93.63608551025392	1203.489013671875	-1023.317626953125	125.0858688354492	1160.676879882813	-995.3210449218752	184.5482482910157	1142.18359375	-1007.348083496094	164.1453704833985	1084.618408203125	-1053.962646484375	444.3012084960939	1152.046508789063	-1150.13232421875	456.0400390625001	1129.170654296875	-1077.980712890625	537.2813110351564	1155.643798828125	-1153.516967773438	-327.1920776367188	864.5078735351565	-1253.52880859375	-338.9902954101563	851.7667236328127	-1034.912475585938	-471.3529663085939	989.6857910156252	-1149.183837890625	-496.6349182128907	969.2226562500002	-1179.2890625	-499.8778076171876	966.5158691406252	-1123.75830078125	-333.1041259765626	660.9773559570314	-1309.767211914063	-253.1971282958985	630.0067138671876	-1308.7861328125	-219.1007843017579	661.9759521484376	-1307.303466796875	-235.384017944336	576.2243041992189	-1286.967651367188	-147.4041442871094	494.7606811523439	-1259.365844726563	-169.5001373291016	490.7925720214845	-1140.058715820313	-180.1286773681641	284.8329162597657	-1194.250122070313	-252.9707031250001	271.7791442871094	-1246.017578125	-218.6052398681641	252.2821807861329	-1222.165893554688	-250.9742889404297	181.9264526367188	-1182.232666015625	-346.3439025878907	124.4747848510742	-1204.0380859375	-319.3353271484376	139.4884185791016	-1118.596923828125	-420.0537109375001	97.93862915039065	-1159.501708984375	-207.1947631835938	54.97120285034181	-1125.676513671875	-206.2287292480469	49.67371749877931	-1172.073364257813	-256.2284851074219	36.87730026245118	-1223.097290039063	-465.1034240722657	615.9125366210939	-978.6119384765627	-450.640594482422	551.0535888671876	-986.2744750976565	-419.8464355468751	541.8612060546876	-994.1530761718752	-503.5945739746095	487.475799560547	-995.707702636719	-543.1999511718751	385.5435791015626	-1006.765380859375	-560.6432495117189	391.0935974121095	-1134.477783203125	-708.3359985351564	305.9285583496094	-1026.832275390625	-787.0113525390627	370.4480285644532	-987.1380004882815	-788.9906005859377	325.9860534667969	-1002.656555175781	-838.0601196289065	310.6991577148438	-1033.326171875	-955.1535644531252	350.7625427246094	-998.9531860351565	-945.4114379882815	348.5722961425782	-1088.990600585938	-1000.046569824219	422.9042968750001	-1044.66552734375	-1010.681518554688	206.1890411376954	-1090.908325195313	-1010.684020996094	200.2818145751954	-1050.098266601563	-1037.94482421875	233.2374420166016	-995.2966918945315	nan	nan	nan	nan	nan	nan	nan	nan	nan	
673	3.36	31.81019592285157	1484.813720703125	-1235.1005859375	-90.13292694091798	1428.27294921875	-1279.296875	-144.3511505126953	1385.836303710938	-1148.706787109375	-156.5818176269532	1312.327880859375	-1195.403686523438	-363.5130615234376	1096.31396484375	-1164.064331054688	-76.44268035888673	1196.828491210938	-1204.71923828125	-101.9157104492188	1292.431884765625	-1327.484252929688	36.13989257812501	1238.730834960938	-1418.720336914063	68.17918395996095	1240.953369140625	-1380.1376953125	101.3475494384766	1215.345825195313	-1425.798095703125	153.2026977539063	1180.515869140625	-1432.866088867188	134.4559326171875	1123.44384765625	-1406.115112304688	423.0217590332032	1143.507080078125	-1318.857055664063	428.0273437500001	1154.667358398438	-1393.864868164063	513.9067382812501	1149.58544921875	-1316.548461914063	-75.35294342041017	1273.009887695313	-1074.422973632813	60.51113128662111	1190.827270507813	-989.816589355469	92.67668914794923	1205.682006835938	-1023.022155761719	124.7889480590821	1163.34521484375	-994.4746093750002	184.2860107421875	1144.907348632813	-1007.421325683594	163.787109375	1087.550659179688	-1054.008911132813	443.4217529296876	1154.907592773438	-1150.08642578125	455.0008239746095	1131.586791992188	-1077.997924804688	536.6824340820314	1158.150390625	-1153.24365234375	-326.4668273925782	865.990173339844	-1253.560424804688	-338.3464965820313	852.963806152344	-1035.016235351563	-470.7664184570314	990.820495605469	-1149.377319335938	-496.1372070312501	970.642761230469	-1179.421264648438	-500.0939941406251	967.7300415039065	-1124.461547851563	-332.7002563476563	661.7278442382814	-1309.518676757813	-252.8511199951172	630.3894653320314	-1308.413452148438	-218.7301025390626	662.3649291992189	-1306.9345703125	-235.1144409179688	576.8269653320314	-1286.244506835938	-147.5299530029297	495.1800842285157	-1258.720825195313	-169.8079986572266	490.9852294921876	-1139.645874023438	-180.3051147460938	284.9136047363282	-1193.70458984375	-253.1858673095704	272.0439758300782	-1245.6162109375	-218.4119873046876	252.1168365478516	-1221.796752929688	-250.9316558837891	181.9464263916016	-1182.122436523438	-346.2512817382813	124.4410247802735	-1203.944458007813	-319.4462280273438	139.78271484375	-1118.608032226563	-420.0344543457032	97.93656921386722	-1159.477172851563	-207.2634735107422	54.96994018554689	-1125.5419921875	-206.1230621337891	49.60353088378908	-1171.979614257813	-255.9467773437501	36.76728820800782	-1223.009399414063	-464.9176025390626	617.3163452148439	-979.0284423828127	-449.7883605957032	552.4752807617189	-985.7747802734377	-418.433563232422	543.7545166015626	-994.152526855469	-502.4480590820314	489.0716247558595	-995.6677856445315	-541.3792114257814	387.1311035156251	-1006.03515625	-559.8086547851564	392.8282165527345	-1134.263671875	-706.7175903320314	306.9551696777344	-1026.873291015625	-786.1611328125002	371.6051940917969	-987.248718261719	-787.430358886719	327.0841369628907	-1002.855407714844	-836.6533813476565	312.0059204101563	-1033.253295898438	-954.0339965820315	351.7152099609376	-999.3459472656252	-944.1278076171877	349.4942016601563	-1089.409790039063	-999.0569458007815	423.751678466797	-1045.100952148438	-1009.662719726563	207.7293090820313	-1091.4208984375	-1009.056030273438	200.906234741211	-1050.666015625	-1036.526245117188	233.9978332519532	-995.850280761719	nan	nan	nan	nan	nan	nan	nan	nan	nan	
674	3.365	29.42269706726075	1488.368041992188	-1235.138916015625	-91.10715484619142	1431.094848632813	-1279.169189453125	-145.065658569336	1388.335571289063	-1148.624145507813	-157.6529846191407	1315.10546875	-1195.270385742188	-363.6872863769532	1097.7021484375	-1164.37451171875	-76.82057952880861	1199.3525390625	-1204.750854492188	-102.2569427490235	1295.041625976563	-1327.326782226563	35.33720016479493	1241.1435546875	-1418.929077148438	66.72152709960939	1243.812133789063	-1380.301025390625	100.6497344970703	1217.561889648438	-1425.992309570313	152.8452301025391	1182.745239257813	-1433.26611328125	133.903549194336	1125.817626953125	-1406.502075195313	422.2052307128907	1146.080932617188	-1319.27880859375	428.475067138672	1156.939819335938	-1394.810546875	512.5562744140626	1152.401977539063	-1316.983032226563	-76.26844787597658	1275.317749023438	-1074.555541992188	59.97736740112306	1193.2041015625	-989.7166137695315	91.93443298339845	1207.968139648438	-1022.887878417969	124.4148864746094	1165.754760742188	-994.4319458007815	183.693099975586	1147.619750976563	-1007.432312011719	162.9903411865235	1090.259887695313	-1053.380981445313	442.8753662109376	1157.532470703125	-1150.010131835938	454.4336242675782	1134.084350585938	-1077.840087890625	536.0110473632814	1161.032348632813	-1153.3203125	-325.8374023437501	867.4166259765627	-1253.485717773438	-337.9008789062501	855.0037841796877	-1035.065063476563	-470.4044494628907	992.2493286132815	-1149.578002929688	-495.6103820800782	971.7112426757815	-1179.641235351563	-498.7334289550782	969.1156005859377	-1124.151000976563	-332.2808227539063	662.3392944335939	-1309.363891601563	-252.5208435058594	630.7723388671876	-1307.972290039063	-217.8126525878907	662.4959716796876	-1306.5146484375	-235.0521392822266	577.1849975585939	-1285.634399414063	-147.5386047363282	495.402801513672	-1258.103881835938	-170.0234069824219	491.0447692871095	-1138.829467773438	-180.3001098632813	285.1886291503907	-1193.367797851563	-252.4405670166016	271.9918823242188	-1245.01708984375	-218.4651489257813	252.385238647461	-1221.420166015625	-251.1815490722657	182.4778900146485	-1182.030395507813	-346.3064270019532	124.4796829223633	-1203.848022460938	-319.4494934082032	139.7267303466797	-1118.488403320313	-420.0536499023439	97.92193603515628	-1159.44677734375	-207.3398742675782	54.86988067626955	-1125.578857421875	-206.0913848876954	49.60041427612306	-1171.924682617188	-256.1867675781251	37.01176071166993	-1223.016845703125	-462.9631652832032	619.0810546875001	-978.768249511719	-448.5753173828126	554.0023193359376	-985.8616943359377	-417.3506164550782	545.4021606445314	-994.6428833007815	-501.2954101562501	490.491180419922	-995.247985839844	-540.5855712890626	388.185516357422	-1006.319519042969	-557.8533935546876	393.8011169433595	-1133.9970703125	-705.3962402343751	308.6537780761719	-1026.385375976563	-785.073181152344	372.8589477539063	-987.3447875976565	-786.299743652344	328.2343139648438	-1003.075988769531	-835.6763305664065	312.3543090820313	-1033.623779296875	-952.7006835937502	352.7594604492188	-999.720153808594	-942.445983886719	349.4644775390626	-1089.862060546875	-997.7258300781252	424.6065063476564	-1045.73193359375	-1007.289916992188	207.3646240234376	-1091.643310546875	-1007.677062988281	201.7489166259766	-1050.766235351563	-1035.43017578125	234.5888671875001	-996.1187744140627	nan	nan	nan	nan	nan	nan	nan	nan	nan	
